# xmcd CD database file
#
# Track frame offsets:
#	150
#	20470
#	43281
#	60323
#	76530
#	93354
#	105287
#
# Disc length: 1702 seconds
#
# Revision: 0
# Processed by: cddbd v1.5.1PL0 Copyright (c) Steve Scherf et al.
# Submitted via: CDex 1.51
#
DISCID=4206a407
DTITLE=サカノボルト - 関係ない
DYEAR=2005
DGENRE=JPop
TTITLE0=通り雨
TTITLE1=ハイサイクル
TTITLE2=サイレント
TTITLE3=野球
TTITLE4=bedtown
TTITLE5=ギタア少年
TTITLE6=冬スペクタクル
EXTD=YEAR: 2005
EXTT0=
EXTT1=
EXTT2=
EXTT3=
EXTT4=
EXTT5=
EXTT6=
PLAYORDER=
